<svg width="15" height="15" viewBox="0 0 15 15" fill="none" xmlns="http://www.w3.org/2000/svg">
<path d="M1.875 3.125V11.875C1.875 12.2065 2.0067 12.5245 2.24112 12.7589C2.47554 12.9933 2.79348 13.125 3.125 13.125H11.875C12.2065 13.125 12.5245 12.9933 12.7589 12.7589C12.9933 12.5245 13.125 12.2065 13.125 11.875V3.125C13.125 2.79348 12.9933 2.47554 12.7589 2.24112C12.5245 2.0067 12.2065 1.875 11.875 1.875H3.125C2.79348 1.875 2.47554 2.0067 2.24112 2.24112C2.0067 2.47554 1.875 2.79348 1.875 3.125ZM6.25 4.375H11.25V5.625H6.25V4.375ZM6.25 6.875H11.25V8.125H6.25V6.875ZM6.25 9.375H11.25V10.625H6.25V9.375ZM3.75 4.375H5V5.625H3.75V4.375ZM3.75 6.875H5V8.125H3.75V6.875ZM3.75 9.375H5V10.625H3.75V9.375Z" fill="white"/>
</svg>
