<svg width="15" height="15" viewBox="0 0 15 15" fill="none" xmlns="http://www.w3.org/2000/svg">
<path d="M13.5688 12.6813L12.6813 13.5687C12.5642 13.6852 12.4057 13.7505 12.2406 13.7505C12.0755 13.7505 11.9171 13.6852 11.8 13.5687L4.37501 6.15625C4.17178 6.2152 3.96159 6.24673 3.75001 6.25C3.35207 6.24972 2.95995 6.15444 2.60625 5.9721C2.25255 5.78976 1.94749 5.52562 1.71642 5.20164C1.48536 4.87766 1.33497 4.50321 1.27776 4.10941C1.22055 3.7156 1.25818 3.31383 1.38751 2.9375L2.97501 4.525L3.30626 4.19375L4.19376 3.30625L4.52501 2.975L2.93751 1.3875C3.31384 1.25817 3.71561 1.22055 4.10941 1.27775C4.50321 1.33496 4.87767 1.48535 5.20165 1.71641C5.52563 1.94748 5.78977 2.25254 5.97211 2.60624C6.15445 2.95995 6.24972 3.35206 6.25001 3.75C6.24674 3.96158 6.21521 4.17177 6.15626 4.375L13.5688 11.8C13.6852 11.9171 13.7505 12.0755 13.7505 12.2406C13.7505 12.4057 13.6852 12.5641 13.5688 12.6813ZM1.43126 11.8C1.31485 11.9171 1.24951 12.0755 1.24951 12.2406C1.24951 12.4057 1.31485 12.5641 1.43126 12.6813L2.31876 13.5687C2.43586 13.6852 2.59427 13.7505 2.75938 13.7505C2.9245 13.7505 3.08291 13.6852 3.20001 13.5687L6.61876 10.1562L4.85001 8.3875M12.5 1.25L10 2.5V3.75L8.64376 5.10625L9.89376 6.35625L11.25 5H12.5L13.75 2.5L12.5 1.25Z" fill="#D9D9D9"/>
</svg>
