<svg width="15" height="15" viewBox="0 0 15 15" fill="none" xmlns="http://www.w3.org/2000/svg">
<path d="M7.5 9.375C8.53553 9.375 9.375 8.53553 9.375 7.5C9.375 6.46447 8.53553 5.625 7.5 5.625C6.46447 5.625 5.625 6.46447 5.625 7.5C5.625 8.53553 6.46447 9.375 7.5 9.375Z" fill="#D9D9D9"/>
<path d="M14.5031 7.34062C13.9518 5.91452 12.9947 4.68123 11.75 3.79317C10.5054 2.9051 9.02787 2.40121 7.49998 2.34375C5.9721 2.40121 4.49454 2.9051 3.24992 3.79317C2.0053 4.68123 1.04818 5.91452 0.496859 7.34062C0.459625 7.44361 0.459625 7.55639 0.496859 7.65938C1.04818 9.08548 2.0053 10.3188 3.24992 11.2068C4.49454 12.0949 5.9721 12.5988 7.49998 12.6562C9.02787 12.5988 10.5054 12.0949 11.75 11.2068C12.9947 10.3188 13.9518 9.08548 14.5031 7.65938C14.5403 7.55639 14.5403 7.44361 14.5031 7.34062ZM7.49998 10.5469C6.89737 10.5469 6.30829 10.3682 5.80723 10.0334C5.30617 9.69859 4.91565 9.22273 4.68504 8.66599C4.45443 8.10924 4.39409 7.49662 4.51165 6.90558C4.62922 6.31455 4.9194 5.77165 5.34552 5.34553C5.77163 4.91942 6.31453 4.62923 6.90557 4.51167C7.4966 4.39411 8.10923 4.45444 8.66597 4.68505C9.22272 4.91567 9.69857 5.30619 10.0334 5.80725C10.3682 6.3083 10.5469 6.89739 10.5469 7.5C10.5456 8.3077 10.2242 9.08197 9.65308 9.6531C9.08195 10.2242 8.30768 10.5456 7.49998 10.5469Z" fill="#D9D9D9"/>
</svg>
