<svg width="15" height="15" viewBox="0 0 15 15" fill="none" xmlns="http://www.w3.org/2000/svg">
<path d="M4.44065 5.49375C4.54897 5.89058 4.78478 6.24077 5.11175 6.49037C5.43871 6.73997 5.83868 6.87512 6.25003 6.875H8.75003C9.48633 6.87493 10.199 7.13485 10.7624 7.60892C11.3258 8.08299 11.7036 8.74077 11.8294 9.46625C12.2536 9.60464 12.6146 9.88972 12.8475 10.2703C13.0804 10.6509 13.17 11.102 13.1002 11.5427C13.0304 11.9834 12.8058 12.3848 12.4667 12.6748C12.1276 12.9648 11.6962 13.1244 11.25 13.125C10.8135 13.1253 10.3905 12.9733 10.054 12.6952C9.71754 12.4171 9.48865 12.0303 9.40682 11.6015C9.32498 11.1727 9.39533 10.7288 9.60574 10.3463C9.81614 9.96379 10.1534 9.6667 10.5594 9.50625C10.4511 9.10942 10.2153 8.75923 9.88831 8.50963C9.56134 8.26003 9.16137 8.12488 8.75003 8.125H6.25003C5.57372 8.1259 4.91553 7.90651 4.37503 7.5V9.48125C4.79221 9.62869 5.14384 9.91887 5.36775 10.3005C5.59167 10.6821 5.67346 11.1306 5.59866 11.5667C5.52386 12.0028 5.2973 12.3985 4.95901 12.6837C4.62072 12.9689 4.1925 13.1253 3.75003 13.1253C3.30756 13.1253 2.87933 12.9689 2.54104 12.6837C2.20276 12.3985 1.97619 12.0028 1.9014 11.5667C1.8266 11.1306 1.90839 10.6821 2.1323 10.3005C2.35622 9.91887 2.70784 9.62869 3.12503 9.48125V5.51875C2.71064 5.37244 2.36078 5.08527 2.1365 4.70735C1.91222 4.32943 1.82776 3.88476 1.89786 3.45093C1.96796 3.01709 2.18817 2.62165 2.52006 2.3336C2.85196 2.04555 3.27445 1.88318 3.71383 1.87484C4.15321 1.86649 4.58158 2.01268 4.92417 2.28792C5.26677 2.56315 5.50184 2.94994 5.58837 3.3808C5.67491 3.81165 5.6074 4.25922 5.39764 4.64538C5.18788 5.03155 4.84918 5.3318 4.44065 5.49375Z" fill="#D9D9D9"/>
</svg>
