<svg width="15" height="15" viewBox="0 0 15 15" fill="none" xmlns="http://www.w3.org/2000/svg">
<path d="M4.43747 10.1833C4.43921 9.31157 4.72839 8.46471 5.26021 7.77395C5.79203 7.08319 6.5368 6.58708 7.37914 6.3625L5.41664 1.25C5.38665 1.17094 5.33332 1.10288 5.26374 1.05485C5.19416 1.00682 5.1116 0.981102 5.02705 0.981102C4.9425 0.981102 4.85995 1.00682 4.79037 1.05485C4.72078 1.10288 4.66746 1.17094 4.63747 1.25L0.862471 11.0667C0.83815 11.1297 0.82952 11.1977 0.837322 11.2648C0.845125 11.3319 0.869127 11.3961 0.90726 11.4519C0.945394 11.5076 0.996514 11.5533 1.05622 11.5849C1.11592 11.6165 1.18241 11.6331 1.24997 11.6333H4.71664C4.53249 11.1721 4.43775 10.68 4.43747 10.1833Z" fill="#D9D9D9"/>
<path d="M13.3334 4.16667H8.33335C8.22285 4.16667 8.11687 4.21057 8.03873 4.28871C7.96059 4.36685 7.91669 4.47283 7.91669 4.58333V6.25C8.45826 6.18013 9.00845 6.22391 9.53215 6.37856C10.0559 6.5332 10.5416 6.7953 10.9583 7.14815C11.3751 7.501 11.7137 7.93683 11.9526 8.42786C12.1915 8.91889 12.3254 9.45432 12.3459 10H13.3334C13.4439 10 13.5498 9.9561 13.628 9.87796C13.7061 9.79982 13.75 9.69384 13.75 9.58333V4.58333C13.75 4.47283 13.7061 4.36685 13.628 4.28871C13.5498 4.21057 13.4439 4.16667 13.3334 4.16667Z" fill="#D9D9D9"/>
<path d="M8.39581 13.3083C10.1217 13.3083 11.5208 11.9092 11.5208 10.1833C11.5208 8.45744 10.1217 7.05833 8.39581 7.05833C6.66992 7.05833 5.27081 8.45744 5.27081 10.1833C5.27081 11.9092 6.66992 13.3083 8.39581 13.3083Z" fill="#D9D9D9"/>
</svg>
