<svg width="15" height="15" viewBox="0 0 15 15" fill="none" xmlns="http://www.w3.org/2000/svg">
<path d="M3.125 1.875C2.79348 1.875 2.47554 2.0067 2.24112 2.24112C2.0067 2.47554 1.875 2.79348 1.875 3.125V4.375C1.875 4.70652 2.0067 5.02446 2.24112 5.25888C2.47554 5.4933 2.79348 5.625 3.125 5.625H5.625C5.95652 5.625 6.27446 5.4933 6.50888 5.25888C6.7433 5.02446 6.875 4.70652 6.875 4.375V3.125C6.875 2.79348 6.7433 2.47554 6.50888 2.24112C6.27446 2.0067 5.95652 1.875 5.625 1.875H3.125ZM11.875 13.125C12.2065 13.125 12.5245 12.9933 12.7589 12.7589C12.9933 12.5245 13.125 12.2065 13.125 11.875V10.625C13.125 10.2935 12.9933 9.97554 12.7589 9.74112C12.5245 9.5067 12.2065 9.375 11.875 9.375H9.375C9.04348 9.375 8.72554 9.5067 8.49112 9.74112C8.2567 9.97554 8.125 10.2935 8.125 10.625V11.875C8.125 12.2065 8.2567 12.5245 8.49112 12.7589C8.72554 12.9933 9.04348 13.125 9.375 13.125H11.875ZM3.125 6.875C2.79348 6.875 2.47554 7.0067 2.24112 7.24112C2.0067 7.47554 1.875 7.79348 1.875 8.125V11.875C1.875 12.2065 2.0067 12.5245 2.24112 12.7589C2.47554 12.9933 2.79348 13.125 3.125 13.125H5.625C5.95652 13.125 6.27446 12.9933 6.50888 12.7589C6.7433 12.5245 6.875 12.2065 6.875 11.875V8.125C6.875 7.79348 6.7433 7.47554 6.50888 7.24112C6.27446 7.0067 5.95652 6.875 5.625 6.875H3.125ZM11.875 8.125C12.2065 8.125 12.5245 7.9933 12.7589 7.75888C12.9933 7.52446 13.125 7.20652 13.125 6.875V3.125C13.125 2.79348 12.9933 2.47554 12.7589 2.24112C12.5245 2.0067 12.2065 1.875 11.875 1.875H9.375C9.04348 1.875 8.72554 2.0067 8.49112 2.24112C8.2567 2.47554 8.125 2.79348 8.125 3.125V6.875C8.125 7.20652 8.2567 7.52446 8.49112 7.75888C8.72554 7.9933 9.04348 8.125 9.375 8.125H11.875Z" fill="white"/>
</svg>
