<svg width="15" height="15" viewBox="0 0 15 15" fill="none" xmlns="http://www.w3.org/2000/svg">
<path d="M13.6019 7.11375C13.4524 7.72185 13.1838 8.29424 12.8115 8.79773C12.4392 9.30123 11.9707 9.72581 11.4331 10.0469C10.896 10.3676 10.3005 10.5784 9.68119 10.6671C9.06192 10.7558 8.43119 10.7207 7.8256 10.5638C7.68854 10.5263 7.54392 10.5263 7.40685 10.5638C7.27256 10.5944 7.14931 10.6614 7.0506 10.7575L4.38435 13.4388C4.28233 13.536 4.16382 13.6143 4.03435 13.67C3.90189 13.725 3.75966 13.7527 3.61623 13.7513C3.47482 13.7527 3.33462 13.725 3.20435 13.67C3.07422 13.6155 2.95549 13.5371 2.85435 13.4388L1.56248 12.145C1.46152 12.046 1.3827 11.9267 1.33123 11.795C1.22317 11.5285 1.22317 11.2303 1.33123 10.9638C1.3827 10.832 1.46152 10.7128 1.56248 10.6138L4.2356 7.93875C4.33375 7.84313 4.40305 7.72185 4.4356 7.58875C4.4731 7.45813 4.4731 7.32 4.4356 7.18875C4.22141 6.36806 4.23118 5.50495 4.46389 4.68932C4.6966 3.87369 5.14373 3.13537 5.75873 2.55125C6.36849 1.97036 7.12349 1.56447 7.94435 1.37625C8.76998 1.17856 9.63399 1.21099 10.4425 1.47C10.5201 1.4926 10.5904 1.53513 10.6464 1.59336C10.7024 1.65159 10.7422 1.72348 10.7618 1.80188C10.7814 1.88028 10.7802 1.96244 10.7581 2.04019C10.7361 2.11794 10.6941 2.18855 10.6362 2.245L8.81248 4.07625C8.59161 4.31709 8.46703 4.63075 8.46248 4.9575C8.45444 5.10068 8.50138 5.24153 8.59373 5.35125L9.6681 6.4325C9.74899 6.49154 9.8418 6.5322 9.94004 6.55164C10.0383 6.57107 10.1396 6.5688 10.2369 6.545C10.5018 6.50854 10.7497 6.39311 10.9481 6.21375L12.7719 4.3825C12.8298 4.32667 12.9006 4.28604 12.978 4.26423C13.0554 4.24242 13.1371 4.24011 13.2156 4.2575C13.2946 4.27685 13.3672 4.31641 13.4262 4.3723C13.4853 4.42818 13.5288 4.49847 13.5525 4.57625C13.799 5.40189 13.8156 6.27904 13.6019 7.11375Z" fill="#D9D9D9"/>
</svg>
