<svg width="15" height="15" viewBox="0 0 15 15" fill="none" xmlns="http://www.w3.org/2000/svg">
<path fill-rule="evenodd" clip-rule="evenodd" d="M7.16875 1.345C7.26808 1.28292 7.38286 1.25 7.5 1.25C7.61714 1.25 7.73192 1.28292 7.83125 1.345L12.1463 4.04188L7.5 6.775L2.85375 4.04188L7.16875 1.345ZM1.88 4.91938C1.8766 4.94612 1.87493 4.97305 1.875 5V10C1.875 10.106 1.90196 10.2103 1.95335 10.303C2.00474 10.3957 2.07886 10.4738 2.16875 10.53L6.875 13.4713V7.8575L1.88 4.91938ZM8.125 13.4713L12.8313 10.53C12.9211 10.4738 12.9953 10.3957 13.0467 10.303C13.098 10.2103 13.125 10.106 13.125 10V5C13.125 4.97292 13.1233 4.94604 13.12 4.91938L8.125 7.85688V13.4713Z" fill="#D9D9D9"/>
</svg>
