<svg width="15" height="15" viewBox="0 0 15 15" fill="none" xmlns="http://www.w3.org/2000/svg">
<path d="M6.995 11.9556L3.9425 10.1825C3.78417 10.0921 3.66063 9.96854 3.57188 9.81188C3.48229 9.65521 3.4375 9.4875 3.4375 9.30875V5.76312C3.4375 5.58437 3.48229 5.41667 3.57188 5.26C3.66104 5.10375 3.78458 4.98021 3.9425 4.88937L6.995 3.11687C7.15333 3.02604 7.32167 2.98063 7.5 2.98063C7.67833 2.98063 7.84667 3.02604 8.005 3.11687L11.0575 4.88937C11.2158 4.98021 11.3396 5.10375 11.4287 5.26C11.5179 5.41667 11.5625 5.58437 11.5625 5.76312V9.30875C11.5625 9.4875 11.5179 9.65521 11.4287 9.81188C11.3392 9.96854 11.2154 10.0921 11.0575 10.1825L8.005 11.9556C7.84667 12.046 7.67833 12.0913 7.5 12.0913C7.32167 12.0913 7.15333 12.046 6.995 11.9556ZM1.875 4.375V2.885C1.875 2.605 1.97333 2.36667 2.17 2.17C2.36667 1.97333 2.605 1.875 2.885 1.875H4.375V2.5H2.885C2.7725 2.5 2.68021 2.53604 2.60812 2.60812C2.53604 2.68021 2.5 2.7725 2.5 2.885V4.375H1.875ZM4.375 13.125H2.885C2.605 13.125 2.36667 13.0267 2.17 12.83C1.97333 12.6333 1.875 12.3952 1.875 12.1156V10.625H2.5V12.1156C2.5 12.2277 2.53604 12.3198 2.60812 12.3919C2.68021 12.464 2.7725 12.5 2.885 12.5H4.375V13.125ZM10.625 13.125V12.5H12.1156C12.2277 12.5 12.3198 12.464 12.3919 12.3919C12.464 12.3198 12.5 12.2277 12.5 12.1156V10.625H13.125V12.1156C13.125 12.3948 13.0267 12.6329 12.83 12.83C12.6333 13.0267 12.3952 13.125 12.1156 13.125H10.625ZM12.5 4.375V2.885C12.5 2.7725 12.464 2.68021 12.3919 2.60812C12.3198 2.53604 12.2277 2.5 12.1156 2.5H10.625V1.875H12.1156C12.3948 1.875 12.6329 1.97333 12.83 2.17C13.0267 2.36667 13.125 2.605 13.125 2.885V4.375H12.5ZM4.3825 5.36438L4.0625 5.54688V5.92562L7.1875 7.70312V11.3469L7.5 11.5262L7.8125 11.3475V7.70312L10.9375 5.92562V5.54688L10.6175 5.36438L7.5 7.16625L4.3825 5.36438Z" fill="white"/>
</svg>
