<svg width="15" height="15" viewBox="0 0 15 15" fill="none" xmlns="http://www.w3.org/2000/svg">
<path d="M12.6562 6.09375V2.34375H10.7812V1.40625H12.6562C13.1733 1.40625 13.5938 1.82719 13.5938 2.34375V6.09375C13.5938 6.80766 14.0063 7.03125 14.5312 7.03125V7.96875C14.0063 7.96875 13.5938 8.17969 13.5938 8.90625V12.6562C13.5938 13.1733 13.1733 13.5938 12.6562 13.5938H10.7812V12.6562H12.6562V8.90625C12.6562 8.11688 13.0688 7.70438 13.5938 7.56656V7.44094C13.0688 7.30312 12.6562 6.88312 12.6562 6.09375ZM5.625 5.625H9.375V9.375H5.625V5.625ZM2.34375 6.09375V2.34375H4.21875V1.40625H2.34375C1.82672 1.40625 1.40625 1.82719 1.40625 2.34375V6.09375C1.40625 6.80766 0.99375 7.03125 0.46875 7.03125V7.96875C0.99375 7.96875 1.40625 8.17969 1.40625 8.90625V12.6562C1.40625 13.1733 1.82672 13.5938 2.34375 13.5938H4.21875V12.6562H2.34375V8.90625C2.34375 8.11688 1.93125 7.70438 1.40625 7.56656V7.44094C1.93125 7.30312 2.34375 6.88312 2.34375 6.09375Z" fill="#D9D9D9"/>
</svg>
