<svg width="15" height="15" viewBox="0 0 15 15" fill="none" xmlns="http://www.w3.org/2000/svg">
<path d="M9.13755 1.66375C9.25618 1.69694 9.36711 1.75318 9.46399 1.82927C9.56087 1.90535 9.6418 1.99978 9.70217 2.10716C9.76254 2.21455 9.80115 2.33277 9.8158 2.45508C9.83045 2.5774 9.82085 2.7014 9.78755 2.82L7.01817 12.6869C6.95104 12.9263 6.79154 13.1293 6.57476 13.2511C6.35798 13.373 6.10168 13.4037 5.86224 13.3366C5.6228 13.2694 5.41983 13.1099 5.29799 12.8931C5.17615 12.6764 5.14542 12.4201 5.21255 12.1806L7.98192 2.3125C8.01518 2.19392 8.07147 2.08306 8.14759 1.98625C8.2237 1.88944 8.31814 1.80857 8.42552 1.74827C8.53289 1.68796 8.65109 1.6494 8.77337 1.63479C8.89565 1.62018 9.01962 1.62981 9.13817 1.66312L9.13755 1.66375ZM4.72505 4.18562C4.90061 4.3614 4.99922 4.59968 4.99922 4.84812C4.99922 5.09656 4.90061 5.33484 4.72505 5.51062L2.73755 7.5L4.7263 9.48875C4.90209 9.66462 5.00081 9.90312 5.00075 10.1518C5.0007 10.4004 4.90186 10.6389 4.72599 10.8147C4.55011 10.9905 4.31161 11.0892 4.06295 11.0891C3.81429 11.0891 3.57584 10.9902 3.40005 10.8144L0.748174 8.1625C0.572611 7.98671 0.473999 7.74843 0.473999 7.5C0.473999 7.25156 0.572611 7.01328 0.748174 6.8375L3.39942 4.18562C3.48649 4.0985 3.58986 4.02939 3.70364 3.98224C3.81743 3.93509 3.93938 3.91082 4.06255 3.91082C4.18571 3.91082 4.30767 3.93509 4.42145 3.98224C4.53524 4.02939 4.63799 4.0985 4.72505 4.18562ZM10.275 5.51062C10.1829 5.42479 10.1091 5.32129 10.0578 5.20629C10.0066 5.09129 9.97903 4.96715 9.97681 4.84127C9.97459 4.7154 9.99774 4.59036 10.0449 4.47362C10.092 4.35689 10.1622 4.25085 10.2513 4.16182C10.3403 4.0728 10.4463 4.00262 10.5631 3.95547C10.6798 3.90832 10.8048 3.88516 10.9307 3.88738C11.0566 3.8896 11.1807 3.91715 11.2957 3.96839C11.4107 4.01963 11.5142 4.09351 11.6 4.18562L14.2519 6.83687C14.4277 7.01268 14.5264 7.25109 14.5264 7.49968C14.5264 7.74828 14.4277 7.98669 14.2519 8.1625L11.6007 10.8144C11.5136 10.9015 11.4103 10.9705 11.2965 11.0177C11.1828 11.0648 11.0609 11.0891 10.9378 11.0891C10.8146 11.0892 10.6927 11.0649 10.579 11.0179C10.4652 10.9708 10.3618 10.9017 10.2747 10.8147C10.1877 10.7276 10.1186 10.6243 10.0714 10.5106C10.0243 10.3968 10 10.2749 9.99997 10.1518C9.99994 10.0287 10.0242 9.90673 10.0713 9.79297C10.1183 9.6792 10.1874 9.57583 10.2744 9.48875L12.2632 7.5L10.275 5.51062Z" fill="white"/>
</svg>
