<svg width="15" height="15" viewBox="0 0 15 15" fill="none" xmlns="http://www.w3.org/2000/svg">
<path d="M3.12488 13.1248C2.78113 13.1248 2.48696 13.0025 2.24238 12.758C1.99779 12.5134 1.87529 12.219 1.87488 11.8748V3.12483C1.87488 2.78108 1.99738 2.48692 2.24238 2.24233C2.48738 1.99775 2.78154 1.87525 3.12488 1.87483H11.8749C12.2186 1.87483 12.513 1.99733 12.758 2.24233C13.003 2.48733 13.1253 2.7815 13.1249 3.12483V11.8748C13.1249 12.2186 13.0026 12.513 12.758 12.758C12.5134 13.003 12.219 13.1252 11.8749 13.1248H3.12488ZM3.12488 11.8748H11.8749V7.49983H3.12488V11.8748ZM3.12488 6.24983H11.8749V3.12483H3.12488V6.24983ZM7.49988 4.99983H11.2499V3.74983H7.49988V4.99983Z" fill="#D9D9D9"/>
</svg>
