<svg width="16" height="16" viewBox="0 0 16 16" fill="none" xmlns="http://www.w3.org/2000/svg">
<path d="M13.5 7V13C13.5 13.2652 13.3946 13.5196 13.2071 13.7071C13.0196 13.8946 12.7652 14 12.5 14H3.5C3.23478 14 2.98043 13.8946 2.79289 13.7071C2.60536 13.5196 2.5 13.2652 2.5 13V7C2.5 6.73478 2.60536 6.48043 2.79289 6.29289C2.98043 6.10536 3.23478 6 3.5 6H7.5V9C7.5 9.13261 7.55268 9.25979 7.64645 9.35355C7.74021 9.44732 7.86739 9.5 8 9.5C8.13261 9.5 8.25979 9.44732 8.35355 9.35355C8.44732 9.25979 8.5 9.13261 8.5 9V6H12.5C12.7652 6 13.0196 6.10536 13.2071 6.29289C13.3946 6.48043 13.5 6.73478 13.5 7ZM8.5 2.70688L10.1462 4.35375C10.2401 4.44757 10.3673 4.50028 10.5 4.50028C10.6327 4.50028 10.7599 4.44757 10.8538 4.35375C10.9476 4.25993 11.0003 4.13268 11.0003 4C11.0003 3.86732 10.9476 3.74007 10.8538 3.64625L8.35375 1.14625C8.30731 1.09976 8.25217 1.06288 8.19147 1.03772C8.13077 1.01256 8.06571 0.999607 8 0.999607C7.93429 0.999607 7.86923 1.01256 7.80853 1.03772C7.74783 1.06288 7.69269 1.09976 7.64625 1.14625L5.14625 3.64625C5.05243 3.74007 4.99972 3.86732 4.99972 4C4.99972 4.13268 5.05243 4.25993 5.14625 4.35375C5.24007 4.44757 5.36732 4.50028 5.5 4.50028C5.63268 4.50028 5.75993 4.44757 5.85375 4.35375L7.5 2.70688V6H8.5V2.70688Z" fill="#D9D9D9"/>
</svg>
