<svg width="15" height="15" viewBox="0 0 15 15" fill="none" xmlns="http://www.w3.org/2000/svg">
<path d="M8.12502 4.88313C8.49844 4.73742 8.80922 4.46583 9.00363 4.11529C9.19804 3.76475 9.26387 3.35731 9.18974 2.96339C9.11561 2.56946 8.90617 2.21382 8.59764 1.95793C8.2891 1.70204 7.90086 1.562 7.50002 1.562C7.09919 1.562 6.71094 1.70204 6.40241 1.95793C6.09388 2.21382 5.88444 2.56946 5.81031 2.96339C5.73618 3.35731 5.80201 3.76475 5.99642 4.11529C6.19083 4.46583 6.50161 4.73742 6.87502 4.88313V5.735L4.46877 7.14125V9.9275L3.66877 10.33C3.34515 10.0943 2.9494 9.97895 2.54981 10.0039C2.15022 10.0288 1.77188 10.1925 1.48007 10.4666C1.18827 10.7407 1.00132 11.1081 0.951481 11.5054C0.901645 11.9026 0.992053 12.3048 1.2071 12.6425C1.42215 12.9802 1.74835 13.2322 2.12939 13.3551C2.51043 13.478 2.92242 13.464 3.29424 13.3155C3.66605 13.167 3.97438 12.8934 4.16599 12.5419C4.3576 12.1903 4.42048 11.783 4.34377 11.39L5.0719 11.0231L7.50002 12.4425L9.92815 11.0238L10.6563 11.3894C10.6354 11.496 10.625 11.6058 10.625 11.7188C10.6251 12.1049 10.7553 12.4798 10.9945 12.7829C11.2337 13.0861 11.568 13.2998 11.9436 13.3898C12.3191 13.4797 12.714 13.4405 13.0646 13.2785C13.4151 13.1166 13.701 12.8413 13.8759 12.4971C14.0509 12.1528 14.1049 11.7597 14.0291 11.381C13.9534 11.0024 13.7523 10.6603 13.4583 10.4099C13.1644 10.1594 12.7946 10.0153 12.4088 10.0007C12.0229 9.98612 11.6433 10.1019 11.3313 10.3294L10.5306 9.92688V7.14125L8.1244 5.735L8.12502 4.88313Z" fill="#D9D9D9"/>
</svg>
